<?xml version="1.0" encoding="UTF-8" standalone="no"?>
<!-- Generator: Adobe Illustrator 14.0.0, SVG Export Plug-In . SVG Version: 6.00 Build 43363)  -->

<svg
   version="1.0"
   id="Layer_1"
   viewBox="0 0 1000 1000"
   xmlns="http://www.w3.org/2000/svg"><defs
   id="defs189" />
<g
   transform="matrix(5.715038,0,0,5.715038,949.29628,299.69077)"
   id="g184">
	<path
   fill="#ffffff"
   d="m 0.853,-4.877 c -1.913,-7.143 -7.525,-12.753 -14.666,-14.665 -12.931,-3.468 -64.804,-3.468 -64.804,-3.468 0,0 -51.873,0 -64.804,3.468 -7.141,1.912 -12.754,7.522 -14.665,14.665 -3.468,12.931 -3.468,39.926 -3.468,39.926 0,0 0,26.995 3.468,39.926 1.912,7.14 7.524,12.753 14.665,14.666 12.931,3.468 64.804,3.468 64.804,3.468 0,0 51.873,0 64.804,-3.468 C -6.672,87.728 -1.06,82.115 0.853,74.975 4.321,62.044 4.321,35.049 4.321,35.049 c 0,0 -0.014,-26.994 -3.468,-39.926 z M -95.221,59.93 V 10.173 l 43.094,24.878 z"
   id="path182" />
</g>
</svg>
