<?xml version="1.0" encoding="utf-8"?>
<!DOCTYPE svg PUBLIC "-//W3C//DTD SVG 1.0//EN" "http://www.w3.org/TR/2001/REC-SVG-20010904/DTD/svg10.dtd">
<svg version="1.0" id="Layer_1" xmlns="http://www.w3.org/2000/svg" xmlns:xlink="http://www.w3.org/1999/xlink" x="0px" y="0px"
	 width="474.733px" height="67.426px" viewBox="0 0 474.733 67.426" enable-background="new 0 0 474.733 67.426"
	 xml:space="preserve">
<g>
	<path fill-rule="evenodd" clip-rule="evenodd" d="M366.012,1.906c-0.241,9.437-18.459,11.345-19.439,4.32
		C345.456-1.778,359.94-0.678,366.012,1.906z M350.892,4.786c-0.087,2.857,6.227,1.417,6.48,0
		C355.869,3.367,352.591,4.236,350.892,4.786z"/>
	<path fill-rule="evenodd" clip-rule="evenodd" d="M316.333,42.946c-3.105,6.027-2.367,18.34-10.08,18
		c-7.682-0.338-7.781-16.403-7.2-26.64c0.638-11.238,2.332-25.207,7.2-28.08c1.485,3.677,0.571,8.667,0,12.96
		c-1.448,10.882-3.735,22.954,0,36c5.645-3.955,4.026-15.174,7.2-21.6c5.502,1.784,6.48,8.712,9.36,12.96
		c3.095,4.563,6.183,7.98,11.521,10.079c8.555-7.662,4.484-41.817-4.32-48.24c-4.962-0.882-2.632,5.529-6.479,5.76
		c-3.162-9.016,6.879-12.306,12.96-7.2c9.693,8.139,13.356,43.84,2.88,52.561C330.367,67.001,317.93,49.329,316.333,42.946z"/>
	<path fill-rule="evenodd" clip-rule="evenodd" d="M2.412,6.226c0.72,0,1.44,0,2.16,0c4.059,17.062,6.401,35.838,16.56,46.8
		c2.336-12.998,1.57-30.603-2.88-41.04c-1.715-1.782-1.183,1.87-4.32,0.72c-0.61-3.25,1.218-4.062,2.88-5.04
		c10.308,3.141,12.527,21.943,11.52,36c-0.398,5.556-1.415,15.549-7.2,15.84c-6.976,0.351-10.984-13.436-12.96-18.72
		c-2.364,4.835,1.533,15.933-2.88,18.72c-4.281-2.059-4.676-8.229-5.04-12.96c-0.936-12.143,1.003-27.014,1.44-38.161
		C1.489,7.223,2.372,7.146,2.412,6.226z"/>
	<path fill-rule="evenodd" clip-rule="evenodd" d="M111.852,8.386c-2.181,3.434-7.845,1.265-12.96,1.44
		c-9.594,0.329-21.977,3.139-32.4,3.6c0.968,12.714,2.621,28.577,0.72,41.76c-5.206-1.842-4.734-9.733-5.04-15.12
		c-0.474-8.328,0.527-18.164,0-25.92c-6.728-0.573-17.75,3.496-20.88-2.16c0.851-4.855,7.745-3.213,11.52-3.6
		c13.38-1.371,34.599-2.008,46.8-1.44C104.467,7.172,108.674,5.611,111.852,8.386z"/>
	<path fill-rule="evenodd" clip-rule="evenodd" d="M173.772,11.986c-8.623,0.092-20.533,1.374-29.52,0
		c-2.687,1.633-3.766,4.874-4.32,8.64c7.069,2.155,19.31,0.979,23.76,3.6c-2.049,3.879-8.145,2.146-12.24,2.16
		c-4.236,0.014-8.35,0.079-12.24,0c-2.915,3.249-1.431,12.376,0.72,15.12c9.326,2.8,20.06-2.213,26.64-2.16
		c-1.62,5.062-16.169,11.594-24.48,10.08c-8.613-1.569-10.946-10.857-8.64-23.04c-5.681,0.079-9.958,1.562-15.12,2.16
		c0.394,4.007,0.924,15.798,0.72,25.92c-0.106,5.253,0.631,10.47-0.72,12.96c-6.078-1.063-4.074-7.855-4.32-10.801
		c-0.679-8.136,0.691-17.204-0.72-27.359c-3.609,0.627-11.451,2.109-12.96-1.44c0.021-4.213,4.893-2.334,7.2-2.88
		c4.924-1.164,9.218-2.72,14.4-2.88c4.394-0.135,8.291,1.97,12.96-0.72c1.974-2.826,2.103-7.497,5.04-9.36
		c-0.854-1.786-4.412-0.868-3.6-4.32c0.583-0.137,0.718-0.722,1.44-0.72c7.899,0.63,17.992,1.354,25.92,2.16
		C167.441,9.487,172.75,7.806,173.772,11.986z"/>
	<path fill-rule="evenodd" clip-rule="evenodd" d="M269.532,13.426c-0.734,3.89-5.324,0.798-8.64,0.72
		c-5.547-0.131-12.406,0.907-17.28,1.44c-2.733,3.747-3.582,9.378-5.04,14.4c4.482,1.031,15.459-1.222,20.16,0
		c-3.988,5.133-13.615,4.625-21.6,5.76c-0.155,4.955,0.902,8.698,2.16,12.24c8.969,5.236,21.361-0.577,28.08-4.32
		c1.065-8.42-0.072-21.095,3.6-28.8c3.721-0.022,3.736,5.368,4.32,7.92c1.984,8.676,2.991,19.588,10.08,24.48
		c6.198-5.472,2.536-18.405,0-25.2c-0.285-3.075-4.78-1.939-4.32-5.76c6.299-0.627,12.581,7.417,13.68,16.56
		c0.913,7.597-2.039,18.261-6.48,19.44c-6.22,1.651-10.507-3.978-12.24-9.36c-1.848,2.952-0.49,9.109-3.6,10.8
		c-3.57-0.27-4.733-2.946-4.32-7.199c-8.333,6.526-29.538,17.092-35.28,2.88c-3.026-7.491,0.406-18.342,2.88-25.92
		c-10.012,0.549-19.104,2.017-28.8,2.88c-0.195,2.444,0.558,5.837-0.72,7.2c5.197-0.823,14.322-3.347,18,0.72
		c-3.326,3.634-9.681,4.239-16.56,4.32c-3.562,2.253-1.909,12.561-2.16,15.84c-0.548,2.708,3.823,0.496,2.88,3.6
		c-4.292,4.808-7.133-0.771-7.92-4.32c-1.683-7.588,1.445-18.665,1.44-24.479c0.851-3.251-3.19-1.609-2.16-5.04
		c8.002-5.269,24.438-4.891,36.72-3.6c1.878-2.36,3.447-4.52,1.44-7.2C244.292,7.084,262.118,10.019,269.532,13.426z"/>
	<path fill-rule="evenodd" clip-rule="evenodd" d="M463.932,21.346c-1.59-1.58,0.713-2.942,0-5.76
		c-21.82-8.946-33.723,46.846-1.439,35.28c0.039-3.32-0.319-7.039,0.72-9.36c-3.611-0.638-6.645,2.012-9.36,0
		c0.51-6.003,13.221-6.245,16.561-2.88c0.702,3.582-2.91,2.85-3.6,5.04c-0.377,4.697,0.443,8.196,1.439,11.52
		c0.998,2.123,5.68,0.561,6.48,2.88c-2.586,4.966-9.488-0.456-12.24-3.6c-14.452,6.99-26.656-4.146-25.2-19.44
		c1.291-13.564,14.771-28.095,25.92-25.2C467.515,10.943,471.455,19.265,463.932,21.346z"/>
	<path fill-rule="evenodd" clip-rule="evenodd" d="M211.932,17.746c-10.152-0.775-23.235-0.111-36.72,0.72
		c-0.492,1.245,2.372,5.284,1.44,9.36c4.094-2.078,14.646-2.911,15.12,2.88c-4.702,1.298-10.043,1.957-15.12,2.88
		c-1.198,8.787,0.391,15.069-0.72,23.04c-8.222-6.796-4.135-24.195-3.6-36.72c-0.611-1.698-1.773,1.984-4.32,0.72
		c0.304-9.754,16.348-9.429,27.36-8.64C202.072,12.466,210.539,13.412,211.932,17.746z"/>
	<path fill-rule="evenodd" clip-rule="evenodd" d="M409.212,16.306c-11.103-0.228-24.908,0.932-36.72,2.16
		c1.471,11.817-1.118,23.652,0,32.4c-8.916-2.896-3.768-21.734-3.601-31.68c-3.542-2.218-12.885,1.365-13.68-3.6
		c0.528-3.038,4.32-2.556,6.479-2.88c8.482-1.272,20.796-1.257,30.24-0.72C398.439,12.356,406.226,12.354,409.212,16.306z"/>
	<path fill-rule="evenodd" clip-rule="evenodd" d="M97.452,20.626c-2.761,1.3-4.352-2.753-7.92-2.88
		c-3.877-0.138-7.237,2.173-9.36,5.04c5.081,11.959,26.288,7.792,28.8,22.32c-1.711,9.335-34.108,13.873-35.28,2.88
		c-0.373-3.496,2.123-6.223,6.48-6.48c0.654,3.535-3.018,2.743-2.88,5.76c7.086,4.912,19.381,0.236,25.2-2.88
		c-1.552-8.775-29.676-8.795-27.36-21.6C76.588,14.733,94.29,8.469,97.452,20.626z"/>
	<path fill-rule="evenodd" clip-rule="evenodd" d="M431.533,16.306c0.344,5.649-3.616,14.808-4.32,24.48
		c-0.352,4.831,1.202,10.935-0.72,14.4c-3.568-2.411-4.155-11.497-3.601-18.72c0.383-4.979,2.017-9.602,2.88-12.96
		c-10.781-0.462-20.023,0.617-30.239,0.72c1.279,7.415,2.423,18.624,0.72,26.64c-6.019-4.287-3.183-16.564-5.04-26.64
		c-4.521-0.92-8.45,1.777-11.521,0c-0.267-5.787,7.52-6.107,11.521-6.48c11.339-1.057,25.52,2.083,33.84,2.88
		C427.665,19.851,428.159,14.021,431.533,16.306z"/>
	<path fill-rule="evenodd" clip-rule="evenodd" d="M39.132,18.466c21.272-4.678,19.652,39.199,0,36.72
		C25.705,53.493,25.447,21.475,39.132,18.466z M40.572,50.146c8.776-2.62,10.216-19.607,4.32-26.64
		c-2.907-0.567,1.078,3.447-2.88,2.88c-1.85-0.07-1.029-2.811-2.88-2.88C31.07,26.712,32.602,48.116,40.572,50.146z"/>
	<path fill-rule="evenodd" clip-rule="evenodd" d="M352.333,18.466c0.72,0,1.439,0,2.16,0c3.684,4.859,2.337,15.741,1.439,22.32
		c-0.645,4.728,0.783,9.435-1.439,11.52c-2.642-1.412-3.159-5.388-3.601-7.92c-1.179-6.772,0.384-15.754,0.721-23.76
		C351.41,19.463,352.292,19.386,352.333,18.466z"/>
	<path fill-rule="evenodd" clip-rule="evenodd" d="M443.052,4.786c-0.553,8.696-18.683,10.022-19.439,2.88
		C422.747-0.504,438.524-0.189,443.052,4.786z M427.932,6.226c0.239,3.467,5.613,1.929,7.2,0.72
		C434.338,4.596,429.84,5.521,427.932,6.226z"/>
</g>
</svg>
